<?xml version="1.0" encoding="UTF-8"?>
<svg width="32px" height="32px" viewBox="0 0 32 32" version="1.1" xmlns="http://www.w3.org/2000/svg">
    <g fill="none" fill-rule="evenodd">
        <rect fill="#000000" width="32" height="32" rx="8"/>
        <path d="M16,6 C20.418278,6 24,9.581722 24,14 C24,16.6666667 22.6666667,19 20,21 L20,23 C20,24.1045695 19.1045695,25 18,25 L14,25 C12.8954305,25 12,24.1045695 12,23 L12,21 C9.33333333,19 8,16.6666667 8,14 C8,9.581722 11.581722,6 16,6 Z M13,15 C12.4477153,15 12,15.4477153 12,16 C12,16.5522847 12.4477153,17 13,17 C13.5522847,17 14,16.5522847 14,16 C14,15.4477153 13.5522847,15 13,15 Z M19,15 C18.4477153,15 18,15.4477153 18,16 C18,16.5522847 18.4477153,17 19,17 C19.5522847,17 20,16.5522847 20,16 C20,15.4477153 19.5522847,15 19,15 Z" fill="#FFFFFF" fill-rule="nonzero"/>
    </g>
</svg> 